<svg xmlns="http://www.w3.org/2000/svg" width="1000" height="1000" viewBox="0 0 1000 1000">
  <style>
    #light-icon { display: inline }
    #dark-icon { display: none }
    @media (prefers-color-scheme: dark) {
      #light-icon { display: none }
      #dark-icon { display: inline }
    }
  </style>
  <defs>
    <clipPath id="circle"><circle cx="500" cy="500" r="500"/></clipPath>
  </defs>
  <g id="light-icon" clip-path="url(#circle)">
    <rect width="1000" height="1000" fill="#121112"/>
    <g transform="translate(500,500) scale(4.6) translate(-168,-170)">
      <path fill="#fff" d="M248.01,100.1v-1.73c-.58-.22-1.1-.45-1.63-.62-5.37-1.79-10.74-3.58-16.12-5.35-16.63-5.46-33.25-10.92-49.88-16.39h0s-1.6-.53-1.6-.53l-7.39-2.46-3.91-1.3-1.66.56s0,0,0,0c-1.34.45-2.67.9-4.01,1.34h0s-8.83,2.97-8.83,2.97h-.01c-17.45,5.85-34.9,11.7-52.35,17.55-4.11,1.38-8.21,2.78-12.36,4.18v1.64c0,28.52,0,57.05,0,85.57,0,8.4,1.75,16.4,5.3,24.02,5.43,11.65,13.84,20.85,23.81,28.7,14.16,11.16,30.02,19.1,46.93,25,.95.33,3.85,1.35,3.85,1.35l3.16-1.12c.32-.11.63-.22.95-.33.81-.28,1.62-.57,2.43-.87,9.32-3.41,18.31-7.58,26.94-12.54,11.56-6.65,22.2-14.47,30.92-24.69,10.25-12,15.69-25.67,15.56-41.66-.23-27.76-.06-55.53-.06-83.3ZM233.28,198.5c-11.11-15.45-22.17-30.94-33.22-46.43-4.38-6.14-9.59-6.18-13.96-.06-9.77,13.68-19.51,27.38-29.35,41.01-3.72,5.15-8.7,5.12-12.44.05-2.79-3.78-5.47-7.64-8.2-11.46-4.4-6.19-9.44-6.22-13.91-.03-5.57,7.73-11.03,15.54-16.67,23.22-.25-.49-.49-.98-.72-1.48-3.01-6.47-4.5-13.26-4.5-20.4,0-24.22,0-48.44,0-72.66v-1.39c3.52-1.19,7.01-2.38,10.5-3.55,13.22-4.43,26.44-8.86,39.65-13.29h0s16.2-5.4,16.2-5.4l.92-.31,68.39,22.6v1.47c0,23.58-.14,47.16.06,70.73.05,6.19-.88,11.97-2.74,17.39Z"/>
    </g>
  </g>
  <g id="dark-icon" clip-path="url(#circle)">
    <rect width="1000" height="1000" fill="#121112"/>
    <g transform="translate(500,500) scale(4.6) translate(-168,-170)">
      <path fill="#fff" d="M248.01,100.1v-1.73c-.58-.22-1.1-.45-1.63-.62-5.37-1.79-10.74-3.58-16.12-5.35-16.63-5.46-33.25-10.92-49.88-16.39h0s-1.6-.53-1.6-.53l-7.39-2.46-3.91-1.3-1.66.56s0,0,0,0c-1.34.45-2.67.9-4.01,1.34h0s-8.83,2.97-8.83,2.97h-.01c-17.45,5.85-34.9,11.7-52.35,17.55-4.11,1.38-8.21,2.78-12.36,4.18v1.64c0,28.52,0,57.05,0,85.57,0,8.4,1.75,16.4,5.3,24.02,5.43,11.65,13.84,20.85,23.81,28.7,14.16,11.16,30.02,19.1,46.93,25,.95.33,3.85,1.35,3.85,1.35l3.16-1.12c.32-.11.63-.22.95-.33.81-.28,1.62-.57,2.43-.87,9.32-3.41,18.31-7.58,26.94-12.54,11.56-6.65,22.2-14.47,30.92-24.69,10.25-12,15.69-25.67,15.56-41.66-.23-27.76-.06-55.53-.06-83.3ZM233.28,198.5c-11.11-15.45-22.17-30.94-33.22-46.43-4.38-6.14-9.59-6.18-13.96-.06-9.77,13.68-19.51,27.38-29.35,41.01-3.72,5.15-8.7,5.12-12.44.05-2.79-3.78-5.47-7.64-8.2-11.46-4.4-6.19-9.44-6.22-13.91-.03-5.57,7.73-11.03,15.54-16.67,23.22-.25-.49-.49-.98-.72-1.48-3.01-6.47-4.5-13.26-4.5-20.4,0-24.22,0-48.44,0-72.66v-1.39c3.52-1.19,7.01-2.38,10.5-3.55,13.22-4.43,26.44-8.86,39.65-13.29h0s16.2-5.4,16.2-5.4l.92-.31,68.39,22.6v1.47c0,23.58-.14,47.16.06,70.73.05,6.19-.88,11.97-2.74,17.39Z"/>
    </g>
  </g>
</svg>
