<?xml version="1.0" encoding="UTF-8"?>
<svg id="Layer_1" xmlns="http://www.w3.org/2000/svg" version="1.1" viewBox="0 0 384.09 384">
  <!-- Generator: Adobe Illustrator 30.2.1, SVG Export Plug-In . SVG Version: 2.1.1 Build 1)  -->
  <defs>
    <style>
      .st0 {
        fill: #121212;
      }
    </style>
  </defs>
  <path class="st0" d="M321.01,81.6v-2.75c-.93-.36-1.75-.71-2.59-.99-8.55-2.85-17.11-5.71-25.67-8.52-26.48-8.7-52.96-17.4-79.43-26.11h0s-2.56-.84-2.56-.84l-11.78-3.92-6.23-2.08-2.65.89s0,0,0,0c-2.13.72-4.26,1.43-6.39,2.14h0s-14.07,4.73-14.07,4.73h-.02c-27.79,9.32-55.59,18.64-83.38,27.95-6.55,2.19-13.08,4.42-19.69,6.66v2.61c0,45.43.01,90.86,0,136.28,0,13.38,2.79,26.12,8.44,38.25,8.64,18.55,22.04,33.2,37.91,45.71,22.54,17.77,47.81,30.42,74.74,39.82,1.51.53,6.13,2.14,6.13,2.14l5.03-1.78c.5-.17,1-.34,1.51-.52,1.29-.45,2.58-.91,3.87-1.38,14.85-5.43,29.16-12.08,42.9-19.98,18.41-10.59,35.35-23.05,49.24-39.32,16.32-19.11,24.99-40.88,24.78-66.35-.37-44.22-.1-88.44-.1-132.66ZM297.55,238.3c-17.69-24.61-35.31-49.27-52.91-73.95-6.98-9.78-15.27-9.84-22.23-.1-15.56,21.78-31.08,43.6-46.75,65.3-5.93,8.2-13.86,8.15-19.82.08-4.45-6.01-8.72-12.16-13.05-18.25-7.01-9.85-15.04-9.91-22.15-.04-8.87,12.31-17.56,24.76-26.56,36.98-.39-.78-.78-1.57-1.15-2.36-4.8-10.3-7.17-21.12-7.17-32.48.02-38.57,0-77.15,0-115.72v-2.22c5.61-1.9,11.16-3.79,16.72-5.65,21.05-7.06,42.1-14.11,63.15-21.17h0s25.8-8.61,25.8-8.61l1.47-.49,108.92,35.99v2.33c0,37.55-.23,75.1.09,112.65.08,9.86-1.41,19.06-4.36,27.7Z"/>
</svg>